HIERARCHY
ROOT Hips
{
	OFFSET 0.000000 83.214638 0.000000
	CHANNELS 6 Xposition Yposition Zposition Xrotation Yrotation Zrotation
	JOINT Pelvis
	{
		OFFSET 0.000000 0.000000 0.000000
		CHANNELS 3 Xrotation Yrotation Zrotation
		JOINT LeftUpLeg
		{
			OFFSET 8.479700 -4.795502 -0.379100
			CHANNELS 3 Xrotation Yrotation Zrotation
			JOINT LeftLeg
			{
				OFFSET 0.024144 -32.555107 0.112900
				CHANNELS 3 Xrotation Yrotation Zrotation
				JOINT LeftFoot
				{
					OFFSET -0.024144 -32.638630 -3.012600
					CHANNELS 3 Xrotation Yrotation Zrotation
					JOINT LeftToeBase
					{
						OFFSET 0.970200 -13.225400 11.864200
						CHANNELS 3 Xrotation Yrotation Zrotation
						End Site
						{
							OFFSET 0.000000 12.319262 0.000000
						}
					}
					JOINT LFootTongue
					{
						OFFSET 1.142400 -1.059800 6.665200
						CHANNELS 3 Xrotation Yrotation Zrotation
						End Site
						{
							OFFSET 0.000000 12.319262 0.000000
						}
					}
				}
				JOINT LeftPantLeg
				{
					OFFSET 0.918482 -16.533964 -2.284700
					CHANNELS 3 Xrotation Yrotation Zrotation
					End Site
					{
						OFFSET 0.350399 24.744368 0.000000
					}
				}
			}
		}
		JOINT RightUpLeg
		{
			OFFSET -8.479700 -4.795502 -0.379100
			CHANNELS 3 Xrotation Yrotation Zrotation
			JOINT RightLeg
			{
				OFFSET -0.023144 -32.555092 0.112900
				CHANNELS 3 Xrotation Yrotation Zrotation
				JOINT RightFoot
				{
					OFFSET 0.023144 -32.638641 -3.012700
					CHANNELS 3 Xrotation Yrotation Zrotation
					JOINT RightToeBase
					{
						OFFSET -0.970200 -13.225400 11.864200
						CHANNELS 3 Xrotation Yrotation Zrotation
						End Site
						{
							OFFSET 0.000000 12.319244 0.000000
						}
					}
					JOINT RFootTongue
					{
						OFFSET -1.142200 -1.059800 6.665200
						CHANNELS 3 Xrotation Yrotation Zrotation
						End Site
						{
							OFFSET 0.000000 12.319243 0.000000
						}
					}
				}
				JOINT RightPantLeg
				{
					OFFSET -0.919482 -16.533978 -2.284800
					CHANNELS 3 Xrotation Yrotation Zrotation
					End Site
					{
						OFFSET -0.350400 24.744419 0.000000
					}
				}
			}
		}
	}
	JOINT Spine
	{
		OFFSET 0.000000 7.722000 1.166200
		CHANNELS 3 Xrotation Yrotation Zrotation
		JOINT Spine1
		{
			OFFSET 0.000000 12.024101 0.248800
			CHANNELS 3 Xrotation Yrotation Zrotation
			JOINT Spine2
			{
				OFFSET 0.000000 11.502998 -0.491200
				CHANNELS 3 Xrotation Yrotation Zrotation
				JOINT Neck
				{
					OFFSET 0.000000 18.430702 -3.123100
					CHANNELS 3 Xrotation Yrotation Zrotation
					JOINT Head
					{
						OFFSET 0.000000 9.051102 1.034000
						CHANNELS 3 Xrotation Yrotation Zrotation
						JOINT HairB
						{
							OFFSET 0.208400 24.786102 24.822300
							CHANNELS 3 Xrotation Yrotation Zrotation
							End Site
							{
								OFFSET 0.000000 32.263779 0.000000
							}
						}
						JOINT HairA
						{
							OFFSET -7.081100 24.428299 23.196600
							CHANNELS 3 Xrotation Yrotation Zrotation
							End Site
							{
								OFFSET 0.000000 32.263779 0.000000
							}
						}
						JOINT Hat
						{
							OFFSET 16.728800 15.048294 -15.439601
							CHANNELS 3 Xrotation Yrotation Zrotation
							End Site
							{
								OFFSET 0.000000 32.263779 0.000000
							}
						}
					}
				}
				JOINT LeftShoulder
				{
					OFFSET 6.197800 13.665199 -4.064700
					CHANNELS 3 Xrotation Yrotation Zrotation
					JOINT LeftArm
					{
						OFFSET 7.778100 -0.187103 -1.709300
						CHANNELS 3 Xrotation Yrotation Zrotation
						JOINT LeftForeArm
						{
							OFFSET 22.049376 0.000000 0.000000
							CHANNELS 3 Xrotation Yrotation Zrotation
							JOINT LeftHand
							{
								OFFSET 23.009392 0.000000 0.000000
								CHANNELS 3 Xrotation Yrotation Zrotation
								JOINT LeftHandThumb1
								{
									OFFSET 3.507191 -2.063065 3.133727
									CHANNELS 3 Xrotation Yrotation Zrotation
									JOINT LeftHandThumb2
									{
										OFFSET 3.101337 -1.790558 1.790558
										CHANNELS 3 Xrotation Yrotation Zrotation
										JOINT LeftHandThumb3
										{
											OFFSET 3.058640 -1.765907 1.765906
											CHANNELS 3 Xrotation Yrotation Zrotation
											End Site
											{
												OFFSET -0.415260 3.926476 -0.049563
											}
										}
									}
								}
								JOINT LeftHandIndex1
								{
									OFFSET 11.334419 -0.901459 3.706815
									CHANNELS 3 Xrotation Yrotation Zrotation
									JOINT LeftHandIndex2
									{
										OFFSET 3.283112 0.000000 0.000000
										CHANNELS 3 Xrotation Yrotation Zrotation
										JOINT LeftHandIndex3
										{
											OFFSET 3.323853 0.000000 0.000000
											CHANNELS 3 Xrotation Yrotation Zrotation
											End Site
											{
												OFFSET -1.135597 3.097809 0.402452
											}
										}
									}
								}
								JOINT LeftHandMiddle1
								{
									OFFSET 11.335861 0.000000 0.000000
									CHANNELS 3 Xrotation Yrotation Zrotation
									JOINT LeftHandMiddle2
									{
										OFFSET 3.410492 0.000000 0.000000
										CHANNELS 3 Xrotation Yrotation Zrotation
										JOINT LeftHandMiddle3
										{
											OFFSET 3.312172 0.000000 0.000000
											CHANNELS 3 Xrotation Yrotation Zrotation
											End Site
											{
												OFFSET -1.150200 3.080154 0.400270
											}
										}
									}
								}
								JOINT LeftHandRing1
								{
									OFFSET 11.514786 -0.013176 -3.003090
									CHANNELS 3 Xrotation Yrotation Zrotation
									JOINT LeftHandRing2
									{
										OFFSET 3.053307 0.000000 0.000000
										CHANNELS 3 Xrotation Yrotation Zrotation
										JOINT LeftHandRing3
										{
											OFFSET 3.295807 0.000000 0.000000
											CHANNELS 3 Xrotation Yrotation Zrotation
											End Site
											{
												OFFSET -1.281006 3.013344 0.375733
											}
										}
									}
								}
								JOINT LeftHandPinky1
								{
									OFFSET 10.518692 -0.960396 -5.730441
									CHANNELS 3 Xrotation Yrotation Zrotation
									JOINT LeftHandPinky2
									{
										OFFSET 2.861649 0.000000 0.000000
										CHANNELS 3 Xrotation Yrotation Zrotation
										JOINT LeftHandPinky3
										{
											OFFSET 2.863380 0.000000 0.000000
											CHANNELS 3 Xrotation Yrotation Zrotation
											End Site
											{
												OFFSET -0.843597 2.711159 0.369971
											}
										}
									}
								}
							}
							JOINT LSleeve
							{
								OFFSET 6.676277 -0.344902 -1.011730
								CHANNELS 3 Xrotation Yrotation Zrotation
								End Site
								{
									OFFSET 0.000000 14.885353 0.000000
								}
							}
						}
					}
				}
				JOINT RightShoulder
				{
					OFFSET -6.197800 13.665199 -4.064700
					CHANNELS 3 Xrotation Yrotation Zrotation
					JOINT RightArm
					{
						OFFSET -7.778100 -0.187103 -1.709300
						CHANNELS 3 Xrotation Yrotation Zrotation
						JOINT RightForeArm
						{
							OFFSET -22.049376 0.000000 0.000000
							CHANNELS 3 Xrotation Yrotation Zrotation
							JOINT RightHand
							{
								OFFSET -23.009392 0.000000 0.000000
								CHANNELS 3 Xrotation Yrotation Zrotation
								JOINT RightHandThumb1
								{
									OFFSET -3.507191 -2.063065 3.133727
									CHANNELS 3 Xrotation Yrotation Zrotation
									JOINT RightHandThumb2
									{
										OFFSET -3.101337 -1.790558 1.790558
										CHANNELS 3 Xrotation Yrotation Zrotation
										JOINT RightHandThumb3
										{
											OFFSET -3.058640 -1.765907 1.765906
											CHANNELS 3 Xrotation Yrotation Zrotation
											End Site
											{
												OFFSET 0.415260 3.926476 -0.049563
											}
										}
									}
								}
								JOINT RightHandIndex1
								{
									OFFSET -11.334419 -0.901459 3.706815
									CHANNELS 3 Xrotation Yrotation Zrotation
									JOINT RightHandIndex2
									{
										OFFSET -3.283112 0.000000 0.000000
										CHANNELS 3 Xrotation Yrotation Zrotation
										JOINT RightHandIndex3
										{
											OFFSET -3.323853 0.000000 0.000000
											CHANNELS 3 Xrotation Yrotation Zrotation
											End Site
											{
												OFFSET 1.135597 3.097809 0.402452
											}
										}
									}
								}
								JOINT RightHandMiddle1
								{
									OFFSET -11.335861 0.000000 0.000000
									CHANNELS 3 Xrotation Yrotation Zrotation
									JOINT RightHandMiddle2
									{
										OFFSET -3.410492 0.000000 0.000000
										CHANNELS 3 Xrotation Yrotation Zrotation
										JOINT RightHandMiddle3
										{
											OFFSET -3.312172 0.000000 0.000000
											CHANNELS 3 Xrotation Yrotation Zrotation
											End Site
											{
												OFFSET 1.150200 3.080154 0.400270
											}
										}
									}
								}
								JOINT RightHandRing1
								{
									OFFSET -11.514786 -0.013176 -3.003090
									CHANNELS 3 Xrotation Yrotation Zrotation
									JOINT RightHandRing2
									{
										OFFSET -3.053307 0.000000 0.000000
										CHANNELS 3 Xrotation Yrotation Zrotation
										JOINT RightHandRing3
										{
											OFFSET -3.295807 0.000000 0.000000
											CHANNELS 3 Xrotation Yrotation Zrotation
											End Site
											{
												OFFSET 1.281006 3.013344 0.375733
											}
										}
									}
								}
								JOINT RightHandPinky1
								{
									OFFSET -10.518692 -0.960396 -5.730441
									CHANNELS 3 Xrotation Yrotation Zrotation
									JOINT RightHandPinky2
									{
										OFFSET -2.861649 0.000000 0.000000
										CHANNELS 3 Xrotation Yrotation Zrotation
										JOINT RightHandPinky3
										{
											OFFSET -2.863380 0.000000 0.000000
											CHANNELS 3 Xrotation Yrotation Zrotation
											End Site
											{
												OFFSET 0.843597 2.711159 0.369971
											}
										}
									}
								}
							}
							JOINT RSleeve
							{
								OFFSET -6.676277 -0.344902 -1.011730
								CHANNELS 3 Xrotation Yrotation Zrotation
								End Site
								{
									OFFSET 0.000000 14.885353 0.000000
								}
							}
						}
					}
				}
				JOINT Backpack
				{
					OFFSET 0.000000 -2.471497 36.677502
					CHANNELS 3 Xrotation Yrotation Zrotation
					End Site
					{
						OFFSET 0.000000 20.427315 0.000000
					}
				}
				JOINT Hood
				{
					OFFSET 0.000000 18.754097 -10.431000
					CHANNELS 3 Xrotation Yrotation Zrotation
					JOINT Hood1
					{
						OFFSET 0.000000 -5.011002 -7.685901
						CHANNELS 3 Xrotation Yrotation Zrotation
						End Site
						{
							OFFSET 0.000000 9.175140 0.000000
						}
					}
				}
				JOINT LHoodieString
				{
					OFFSET 5.250500 16.397697 3.089900
					CHANNELS 3 Xrotation Yrotation Zrotation
					JOINT LHoodieString1
					{
						OFFSET 0.257700 -6.364304 3.694600
						CHANNELS 3 Xrotation Yrotation Zrotation
						JOINT LHoodieString2
						{
							OFFSET 0.000000 -9.643799 2.679100
							CHANNELS 3 Xrotation Yrotation Zrotation
							End Site
							{
								OFFSET 0.000000 10.009018 0.000000
							}
						}
					}
				}
				JOINT RHoodieString
				{
					OFFSET -5.250500 16.397697 3.089900
					CHANNELS 3 Xrotation Yrotation Zrotation
					JOINT RHoodieString1
					{
						OFFSET -0.257700 -6.364304 3.694600
						CHANNELS 3 Xrotation Yrotation Zrotation
						JOINT RHoodieString2
						{
							OFFSET 0.000000 -9.643799 2.679100
							CHANNELS 3 Xrotation Yrotation Zrotation
							End Site
							{
								OFFSET 0.000000 10.009018 0.000000
							}
						}
					}
				}
			}
			JOINT LBackpack_Strap
			{
				OFFSET 15.223200 -7.719803 -6.610900
				CHANNELS 3 Xrotation Yrotation Zrotation
				End Site
				{
					OFFSET 0.000000 16.040596 0.000000
				}
			}
			JOINT RBackpack_Strap
			{
				OFFSET -15.223000 -7.719803 -6.610900
				CHANNELS 3 Xrotation Yrotation Zrotation
				End Site
				{
					OFFSET 0.000000 16.040596 0.000000
				}
			}
		}
	}
	JOINT BoyFacialAnim_Joint
	{
		OFFSET 1.000000 -82.208099 -1.550900
		CHANNELS 3 Xrotation Yrotation Zrotation
		End Site
		{
			OFFSET 0.000000 30.012791 0.000000
		}
	}
}
MOTION
Frames: 4
Frame Time: 0.016667
3.862720 79.307297 7.599234 -31.891970 -38.316880 -21.658602 -0.000003 0.000001 0.000001 1.516498 12.646885 2.347633 32.317102 -1.700830 -4.440582 -10.606837 8.634111 7.733856 -0.000000 -0.000001 0.000000 -0.000000 -0.000001 0.000000 0.000000 -0.000001 -0.000001 13.804570 -8.246918 -8.754131 27.891180 4.879127 -5.932363 -15.494057 -11.809031 6.965529 -0.000000 0.000000 0.000000 -0.000000 0.000000 0.000000 -0.000003 -0.000003 0.000002 11.190396 -4.830507 -0.697354 3.545657 -2.400645 -0.151373 3.557022 -2.388385 -0.108336 1.348021 0.319774 -0.743108 -7.666565 -1.011479 4.648232 -0.000001 0.000003 0.000000 -0.000001 0.000003 0.000000 -0.000001 0.000003 0.000000 0.576507 -16.606948 -10.307152 -20.089164 4.591487 -37.031223 0.000024 -67.698888 0.000006 -41.746687 -11.632960 -7.621737 -22.783296 -14.798042 12.273502 3.061440 10.434227 14.851288 -0.000003 -0.000000 -0.000001 2.077600 -2.776294 26.093717 3.254396 5.245082 -63.613896 0.000001 0.000001 -0.000003 -0.902192 3.834329 20.965937 2.978805 5.099686 -60.557892 -0.000000 -0.000001 -0.000003 -6.120849 13.236947 27.840230 3.788274 5.476556 -69.323688 0.000000 0.000001 -0.000004 -10.441698 21.141358 29.056557 0.279096 1.788366 -17.739120 0.000000 -0.000000 0.000003 -0.000001 -0.000001 -0.000001 0.014986 14.189131 15.480069 -11.472638 -5.400281 60.640366 -0.000005 39.601030 0.000005 -3.018907 -4.350301 23.974261 -20.073125 16.089482 -24.921340 8.794348 -40.952742 -1.386076 0.000001 0.000003 -0.000001 1.096421 -5.220442 38.986334 3.071109 -4.379319 70.068527 -0.000002 0.000000 0.000004 2.986230 -6.607909 70.685211 0.640888 -2.359629 30.386733 -0.000000 -0.000000 0.000003 5.905030 -7.187168 80.752937 0.324115 -1.708681 21.480960 -0.000004 0.000003 0.000001 2.049613 -22.469446 97.460201 1.111359 -3.021288 40.383989 0.000001 -0.000002 -0.000002 0.000003 -0.000001 0.000002 -0.000000 -0.000003 -0.000000 -0.000000 -0.000003 -0.000000 -0.000000 -0.000003 -0.000000 -0.000000 -0.000003 -0.000000 -0.000000 -0.000003 -0.000000 -0.000000 -0.000003 -0.000000 -0.000000 -0.000003 -0.000000 -0.000000 -0.000003 -0.000000 -0.000000 -0.000003 -0.000000 -0.000000 -0.000002 -0.000000 -0.000000 -0.000002 -0.000000 -0.000003 0.000001 0.000001 
4.204292 79.299500 7.875835 -32.408705 -39.338239 -22.468027 0.000001 -0.000002 0.000000 1.597487 12.885862 2.221107 32.282339 -2.109543 -4.843572 -10.825999 9.912146 8.845409 -0.000000 0.000002 -0.000000 -0.000000 0.000002 -0.000000 -0.000000 0.000000 0.000001 13.259410 -8.051693 -9.110294 28.064469 4.591827 -6.067578 -14.683122 -12.064178 7.613263 -0.000000 0.000002 -0.000001 -0.000000 0.000002 -0.000001 0.000003 -0.000002 0.000001 11.189295 -4.827162 -0.710292 3.545658 -2.400646 -0.151373 3.557022 -2.388378 -0.108336 1.314812 0.322527 -0.750640 -7.907089 -0.936243 4.513179 -0.000000 -0.000000 -0.000000 -0.000000 -0.000000 -0.000000 -0.000000 -0.000000 -0.000000 0.579612 -16.606973 -10.288917 -19.994001 4.524802 -36.978631 0.000073 -67.695186 0.000067 -41.851462 -11.691142 -7.561902 -22.783293 -14.798039 12.273502 3.079717 10.434806 14.836322 -0.000001 0.000001 0.000001 2.045393 -2.802599 26.067079 3.253674 5.244729 -63.605986 -0.000001 0.000000 -0.000002 -0.893473 3.814332 20.948170 2.979437 5.100058 -60.565104 -0.000000 -0.000002 -0.000000 -6.128888 13.260739 27.829044 3.784887 5.475294 -69.288335 -0.000002 0.000000 -0.000000 -10.387925 21.193334 29.075248 0.279680 1.790214 -17.758009 -0.000000 0.000001 0.000002 0.000001 0.000000 -0.000000 0.007980 14.220985 15.529859 -11.429879 -5.404807 60.569974 0.000003 39.667198 -0.000011 -3.063981 -4.381491 23.963524 -20.073120 16.089480 -24.921345 8.794349 -40.952745 -1.386073 0.000000 0.000002 0.000000 1.106969 -5.237093 39.169704 3.083406 -4.383758 70.229412 -0.000004 0.000003 0.000004 2.981897 -6.606657 70.757891 0.640850 -2.359564 30.385965 0.000000 -0.000001 -0.000000 5.895824 -7.186292 80.734755 0.324323 -1.709210 21.487811 0.000002 0.000001 0.000001 2.105657 -22.468945 97.580310 1.111359 -3.021286 40.383992 -0.000003 -0.000001 -0.000002 0.000000 0.000001 -0.000005 -0.000000 0.000003 0.000000 -0.000000 0.000003 0.000000 -0.000000 0.000003 0.000000 -0.000000 0.000003 0.000000 -0.000000 0.000003 0.000000 0.000000 -0.000002 -0.000000 -0.000000 0.000003 0.000000 -0.000000 0.000003 0.000000 0.000000 -0.000002 -0.000000 -0.000001 0.000002 0.000001 -0.000001 0.000002 0.000001 0.000001 -0.000002 0.000000 
4.533632 79.292984 8.149677 -32.952166 -40.353232 -23.301388 0.000003 0.000001 0.000000 1.732491 13.116942 2.023349 32.176652 -2.547410 -5.169345 -11.306465 11.232282 10.063601 0.000000 -0.000002 0.000000 0.000000 -0.000002 0.000000 -0.000000 -0.000001 -0.000002 12.664577 -7.981140 -9.502585 28.277738 4.748271 -6.082334 -13.879185 -12.918037 7.951273 -0.000000 -0.000002 -0.000000 -0.000000 -0.000002 -0.000000 0.000002 -0.000004 -0.000001 11.188193 -4.823908 -0.723345 3.545658 -2.400649 -0.151372 3.557023 -2.388384 -0.108336 1.278866 0.332801 -0.774660 -8.164866 -0.794801 4.357011 -0.000000 0.000001 0.000000 -0.000000 0.000001 0.000000 -0.000000 0.000001 0.000000 0.580764 -16.582632 -10.279782 -19.895784 4.421333 -36.921800 0.000028 -67.679443 0.000032 -41.961042 -11.751912 -7.500612 -22.783291 -14.798039 12.273505 3.099935 10.435458 14.819803 0.000002 -0.000001 -0.000001 2.025259 -2.817830 26.042796 3.253576 5.244680 -63.604996 -0.000002 0.000000 -0.000003 -0.885642 3.795375 20.937786 2.979690 5.100191 -60.567795 0.000000 0.000001 -0.000003 -6.132700 13.270857 27.825636 3.782937 5.474556 -69.267844 -0.000001 -0.000000 0.000001 -10.351058 21.229464 29.094413 0.279740 1.790424 -17.760177 0.000001 0.000000 0.000001 0.000000 -0.000002 -0.000000 0.005023 14.258429 15.543482 -11.398955 -5.416201 60.537503 -0.000026 39.702950 0.000023 -3.105304 -4.392590 23.950461 -20.073127 16.089480 -24.921352 8.794347 -40.952742 -1.386076 -0.000001 -0.000001 0.000000 1.117291 -5.251242 39.338338 3.100186 -4.389727 70.448852 -0.000001 0.000000 0.000002 2.976180 -6.604915 70.820510 0.641028 -2.359867 30.390298 -0.000002 0.000001 0.000000 5.886037 -7.185534 80.710850 0.324506 -1.709658 21.493810 0.000000 0.000000 0.000002 2.138415 -22.467795 97.646003 1.111363 -3.021283 40.383989 -0.000003 0.000002 0.000001 -0.000000 0.000003 -0.000001 -0.000000 0.000002 0.000000 -0.000000 0.000002 0.000000 -0.000000 0.000002 0.000000 -0.000000 0.000002 0.000000 -0.000000 0.000002 0.000000 -0.000000 -0.000000 0.000000 -0.000000 0.000002 0.000000 -0.000000 0.000002 0.000000 -0.000000 -0.000000 0.000000 -0.000000 0.000001 -0.000000 -0.000000 0.000001 -0.000000 0.000003 0.000001 0.000000 
4.842400 79.289772 8.423738 -33.523327 -41.360784 -24.160242 -0.000000 -0.000002 -0.000000 1.904773 13.306606 1.954678 31.951174 -3.011599 -5.532708 -11.593356 12.640356 10.631785 0.000000 0.000002 -0.000000 0.000000 0.000002 -0.000000 -0.000000 -0.000001 -0.000000 12.022728 -7.970055 -9.825663 28.483583 4.688165 -6.043968 -13.029380 -14.375385 8.016194 -0.000000 0.000000 -0.000000 -0.000000 0.000000 -0.000000 0.000000 0.000002 -0.000002 11.187142 -4.821114 -0.735977 3.545658 -2.400649 -0.151373 3.557021 -2.388377 -0.108336 1.244414 0.349210 -0.810673 -8.403961 -0.613167 4.203383 -0.000000 -0.000000 -0.000000 -0.000000 -0.000000 -0.000000 -0.000000 -0.000000 -0.000000 0.581073 -16.531945 -10.273114 -19.827088 4.304718 -36.893854 0.000024 -67.649124 0.000041 -42.037847 -11.798988 -7.458967 -22.783291 -14.798033 12.273502 3.120391 10.436109 14.803060 -0.000001 -0.000002 -0.000001 2.016329 -2.822804 26.020149 3.253956 5.244893 -63.609360 0.000000 0.000001 -0.000002 -0.880749 3.784770 20.924187 2.979472 5.100056 -60.565234 -0.000001 -0.000001 -0.000000 -6.133125 13.271924 27.825386 3.781437 5.474033 -69.252456 -0.000000 0.000001 0.000001 -10.329187 21.252318 29.106639 0.279464 1.789532 -17.750963 -0.000000 -0.000000 0.000005 0.000002 -0.000001 0.000000 0.004874 14.295178 15.534099 -11.379685 -5.432803 60.532073 -0.000002 39.716741 0.000002 -3.137166 -4.390538 23.938399 -20.073120 16.089479 -24.921347 8.794344 -40.952745 -1.386069 0.000002 0.000001 -0.000000 1.125944 -5.261675 39.465543 3.114862 -4.394921 70.640535 0.000004 -0.000002 0.000002 2.971169 -6.603353 70.859593 0.641258 -2.360270 30.395950 0.000001 -0.000001 0.000001 5.878789 -7.185223 80.685346 0.324630 -1.709933 21.497590 0.000002 0.000002 0.000001 2.141815 -22.466777 97.647513 1.111362 -3.021285 40.383992 -0.000001 0.000002 0.000000 0.000001 0.000001 0.000000 0.000000 -0.000000 -0.000000 0.000000 -0.000000 -0.000000 0.000000 -0.000000 -0.000000 0.000000 -0.000000 -0.000000 0.000000 -0.000000 -0.000000 0.000001 -0.000002 -0.000000 0.000000 -0.000000 -0.000000 0.000000 -0.000000 -0.000000 0.000001 -0.000002 -0.000000 -0.000000 0.000002 0.000000 -0.000000 0.000002 0.000000 -0.000000 -0.000002 -0.000000 
